<?xml version="1.0" encoding="utf-8"?>
<!-- Generator: Adobe Illustrator 15.0.0, SVG Export Plug-In . SVG Version: 6.00 Build 0)  -->
<!DOCTYPE svg PUBLIC "-//W3C//DTD SVG 1.1//EN" "http://www.w3.org/Graphics/SVG/1.1/DTD/svg11.dtd">
<svg version="1.1" id="Layer_1" transform="scale(1)" xmlns:xlinkns="http://www.w3.org/1999/xlink" xmlns:wf="wf@svg"
	 xmlns="http://www.w3.org/2000/svg" xmlns:xlink="http://www.w3.org/1999/xlink" x="0px" y="0px" width="50px" height="1550px"
	 viewBox="0 0 50 1550" enable-background="new 0 0 50 1550" xml:space="preserve">
<title>Flowchart Symbols</title>
<desc>This file contains All Standard Symbols for Flowchart</desc>
<g id="process">
	<rect x="7.91" y="6" fill="none" stroke="#ffffff" stroke-width="1.5" width="35" height="25"/>
</g>
<g id="terminator">
	<path fill="none" stroke="#ffffff" stroke-width="1.5" d="M19.91,55.65h11c6.627,0,12,4.506,12,10.064l0,0
		c0,5.558-5.373,10.064-12,10.064h-11c-6.627,0-12-4.506-12-10.064l0,0C7.91,60.156,13.283,55.65,19.91,55.65z"/>
</g>
<g id="decision" transform="translate(0,100)">
	<polygon fill="none" stroke="#ffffff" stroke-width="1.5" points="25.41,0.429 40.41,15.429 25.41,30.429 10.41,15.429 	"/>
</g>
<g id="delay" transform="translate(0,150)">
	<path fill="none" stroke="#ffffff" stroke-width="1.5" d="M29.02,28.119H8.581V5.078H29.02
		C46.646,5.078,46.646,28.121,29.02,28.119z"/>
</g>
<g id="predefinedProcess" transform="translate(0,200)">
	<path fill="none" stroke="#ffffff" stroke-width="1.5" d="M7.91,2.769h35V24.62h-35V2.769z M16.41,3.224v21.851V3.224z
		 M34.66,3.387v21.851V3.387z"/>
</g>
<g id="alternateProcess" transform="translate(0,250)">
	<path fill="none" stroke="#ffffff" stroke-width="1.5" d="M13.056-0.112h24.71c2.729,0,4.941,2.087,4.941,4.662v13.052
		c0,2.575-2.213,4.662-4.941,4.662h-24.71c-2.73,0-4.942-2.087-4.942-4.662V4.549C8.113,1.975,10.326-0.112,13.056-0.112z"/>
</g>
<g id="dataIO" transform="translate(0,300)">
	<path fill="none" stroke="#ffffff" stroke-width="1.5" d="M14.8-3.088h27.662l-8.34,21.25H8.358L14.8-3.088z"/>
</g>
<g id="preparation" transform="translate(0,450)">
	<path fill="none" stroke="#ffffff" stroke-width="1.5" d="M13.16-6.604h24.5l5.25,11.369l-5.25,11.369h-24.5L7.91,4.766
		L13.16-6.604z"/>
</g>
<g id="display" transform="translate(0,500)">
	<path fill="none" stroke="#ffffff" stroke-width="1.5" d="M13.16-9.215h21c4.832,0,8.75,4.701,8.75,10.5s-3.918,10.5-8.75,10.5l0,0
		h-21l-5.25-10.5L13.16-9.215z"/>
</g>
<g id="manualInput" transform="translate(0,550)">
	<path fill="none" stroke="#ffffff" stroke-width="1.5" d="M7.91-7.44v18.375h35v-24.5L7.91-7.44z"/>
</g>
<g id="manualOperation" transform="translate(0,600)">
	<path fill="none" stroke="#ffffff" stroke-width="1.5" d="M7.553-14.416h33.5L36.027,7.75H12.578L7.553-14.416z"/>
</g>
<g id="card" transform="translate(0,650)">
	<path fill="none" stroke="#ffffff" stroke-width="1.5" d="M7.91-18.066v16.8h35v-21h-28L7.91-18.066z"/>
</g>
<g id="punchedTape" transform="translate(0,700)">
	<path fill="none" stroke="#ffffff" stroke-width="1.5" d="M7.91-25.217c0,0,8.75,3.15,17.5,0c0,0,8.75-3.149,17.5,0v18.9
		c0,0-8.75-3.15-17.5,0c0,0-8.75,3.15-17.5,0V-25.217z"/>
</g>
<g id="connector" transform="translate(0,750)">
	<path fill="none" stroke="#ffffff" stroke-width="1.5" d="M20.173-3.279c7.17,2.892,15.328-0.577,18.221-7.748
		c2.891-7.171-0.578-15.328-7.748-18.22c-7.172-2.892-15.329,0.577-18.221,7.748C9.855-15.125,12.29-7.83,18.173-4.278L20.173-3.279
		z"/>
</g>
<g id="offPageConnector" transform="translate(0,800)">
	<path fill="none" stroke="#ffffff" stroke-width="1.5" d="M7.91-27.609h35v20.746l-17.5,5.187L7.91-6.863V-27.609z"/>
</g>
<g id="transfer" transform="translate(0,850)">
	<path fill="none" stroke="#ffffff" stroke-width="1.5" d="M7.91-20.728h24.5v-6.3l10.5,10.5l-10.5,10.5v-6.3H7.91V-20.728z"/>
</g>
<path fill="none" stroke="#ffffff" stroke-width="1.5" d="M19.55,897.695c8.024,3.115,17.152-0.621,20.39-8.346
	c3.234-7.727-0.647-16.514-8.67-19.629c-8.026-3.115-17.154,0.621-20.39,8.346c-2.875,6.867-0.151,14.727,6.432,18.553
	L19.55,897.695z M9.745,883.709h31.331H9.745z M25.538,868.627v30.164V868.627z"/>
<g id="collate" transform="translate(0,1000)">
	<path fill="none" stroke="#ffffff" stroke-width="1.5" d="M10.41-22.155h30l-30,23h30L10.41-22.155z"/>
</g>
<g id="mergeStorage" transform="translate(0,1100)">
	<path fill="none" stroke="#ffffff" stroke-width="1.5" d="M7.91-30.48h35l-17.5,21L7.91-30.48z"/>
</g>
<g id="extract" transform="translate(0,1150)">
	<path fill="none" stroke="#ffffff" stroke-width="1.5" d="M25.41-34.831l17.5,21h-35L25.41-34.831z"/>
</g>
<g id="storedData" transform="translate(0,1200)">
	<path fill="none" stroke="#ffffff" stroke-width="1.5" d="M13.511-39.182c-2.817,0-5.101,4.758-5.101,10.625
		s2.283,10.625,5.101,10.625H42.41c-2.816,0-5.1-4.758-5.1-10.625s2.283-10.625,5.1-10.625H13.511z"/>
</g>
<g id="magneticDisk" transform="translate(0,1250)">
	<path fill="none" stroke="#ffffff" stroke-width="1.5" d="M8.41-39.645c0-2.008,7.611-3.637,17-3.637s17,1.629,17,3.637v16.973
		c0,2.008-7.611,3.637-17,3.637s-17-1.629-17-3.637V-39.645c0,2.009,7.611,3.637,17,3.637s17-1.628,17-3.637
		c0,2.009-7.611,3.637-17,3.637S8.41-37.636,8.41-39.645z"/>
</g>
<g>
	<path fill="none" stroke="#ffffff" stroke-width="1.5" d="M13.589,1255.614c-3,0-5.431,5.243-5.431,11.709
		c0,6.465,2.431,11.708,5.431,11.708h23.28c-3.2,0-5.793-5.243-5.793-11.708c0-6.466,2.593-11.709,5.793-11.709H13.589z"/>
	<path fill="none" stroke="#ffffff" stroke-width="1.5" d="M36.869,1255.614c3.2,0,5.793,5.243,5.793,11.708
		c0,6.466-2.593,11.709-5.793,11.709"/>
</g>
<path fill="none" stroke="#ffffff" stroke-width="1.5" d="M7.91,1303.681h35v17.5h-35V1303.681z M8.312,1309.014H42.91H8.312z
	 M14.229,1304.098l-0.068,17.083L14.229,1304.098z"/>
<g id="magneticTape" transform="translate(0,1400)">
	<path fill="none" stroke="#ffffff" stroke-width="1.5" d="M25.524-28.149h17.5v-5.25h-3.5c5.629-5.893,3.822-14.092-4.035-18.313
		c-7.857-4.221-18.79-2.866-24.419,3.026c-5.628,5.894-3.821,14.093,4.036,18.313c2.064,1.108,4.423,1.867,6.917,2.224H25.524z"/>
</g>
<g id="callout" transform="translate(0,1450)">
	<path fill="none" stroke="#ffffff" stroke-width="1.5" d="M7.91-53.5h35v22.313h-21L9.66-27.25l3.5-3.938H7.91V-53.5z"/>
</g>
<path fill="none" stroke="#ffffff" stroke-width="1.5" d="M5.307,349.036h34.805l0.124,20.35c0,0-4.667-9.737-13.368-1.774
	s-21.436,1.774-21.436,1.774L5.307,349.036z"/>
<path fill="none" stroke="#ffffff" stroke-width="1.5" d="M11.432,944.705c3.549,7.842,12.682,11.564,20.403,8.314
	c7.717-3.25,11.1-12.244,7.553-20.084c-3.551-7.844-12.684-11.566-20.403-8.316c-6.861,2.891-10.418,10.41-8.398,17.75
	L11.432,944.705z M14.224,927.854l22.371,21.936L14.224,927.854z M36.06,928.141L14.94,949.68L36.06,928.141z"/>
<g>
	<polygon fill="none" stroke="#ffffff" stroke-width="1.5" points="25.41,1047.182 8.91,1034.649 25.41,1022.182 41.91,1034.594 	
		"/>
	<line fill="none" stroke="#ffffff" stroke-width="1.5" x1="41.003" y1="1034.381" x2="9.816" y2="1034.341"/>
	<line fill="none" stroke="#ffffff" stroke-width="1.5" x1="25.41" y1="1027.113" x2="25.41" y2="1027.113"/>
</g>
<g>
	<g id="document" transform="translate(0,350)">
		<path fill="none" stroke="#ffffff" stroke-width="1.5" d="M5.973,56.5h29.563l0.105,17.749c0,0-3.964-8.493-11.354-1.548
			c-7.391,6.945-18.208,1.548-18.208,1.548L5.973,56.5z"/>
	</g>
	<g>
		<path fill="none" stroke="#ffffff" stroke-width="1.5" d="M7.649,406.5c0-2.186,0-2.186,0-2.186h29.282h0.633v17.418h-1.924"/>
	</g>
	<g>
		<path fill="none" stroke="#ffffff" stroke-width="1.5" d="M9.656,404.736c0-2.186,0-2.186,0-2.186h29.281h0.633v17.418h-1.924"/>
	</g>
</g>
</svg>
